<?xml version="1.0" encoding="UTF-8" standalone="no"?>
<!-- Created with Inkscape (http://www.inkscape.org/) -->

<svg
   width="167.976"
   height="175"
   viewBox="0 0 44.443656 46.302087"
   version="1.1"
   id="svg1"
   inkscape:version="1.3 (0e150ed6c4, 2023-07-21)"
   sodipodi:docname="curvas-cabezera.svg"
   xmlns:inkscape="http://www.inkscape.org/namespaces/inkscape"
   xmlns:sodipodi="http://sodipodi.sourceforge.net/DTD/sodipodi-0.dtd"
   xmlns="http://www.w3.org/2000/svg"
   xmlns:svg="http://www.w3.org/2000/svg">
  <sodipodi:namedview
     id="namedview1"
     pagecolor="#000000"
     bordercolor="#000000"
     borderopacity="0.25"
     inkscape:showpageshadow="2"
     inkscape:pageopacity="0.0"
     inkscape:pagecheckerboard="0"
     inkscape:deskcolor="#d1d1d1"
     inkscape:document-units="mm"
     inkscape:zoom="0.73139029"
     inkscape:cx="398.55601"
     inkscape:cy="342.49839"
     inkscape:window-width="1920"
     inkscape:window-height="1017"
     inkscape:window-x="1912"
     inkscape:window-y="-8"
     inkscape:window-maximized="1"
     inkscape:current-layer="layer1" />
  <defs
     id="defs1" />
  <g
     inkscape:label="Capa 1"
     inkscape:groupmode="layer"
     id="layer1">
    <path
       style="fill:#7cc0e2;stroke:none;stroke-width:0.264583"
       d="m 43.369663,43.684717 c -2.549,0.10954 -4.87125,0.42466 -7.40834,-0.17885 -3.39698,-0.80804 -6.69766,-2.74955 -9.525,-4.73975 -7.45172,-5.24563 -12.72063,-12.48225 -16.8745902,-20.481396 -2.28971,-4.409546 -3.95817,-9.0527182 -5.52688,-13.7583322 -0.32835,-0.985308 -0.86625,-4.16983307 -2.43417,-3.73327106 -1.62983,0.45402496 -0.26643,3.55150206 0.0587,4.52702106 1.52664,4.5802013 3.46339,9.2884612 5.83909,13.4937482 4.8217602,8.5344 10.6254002,16.43301 18.9378102,21.8694 5.15594,3.37185 10.72859,5.47635 16.93334,4.32435 z"
       id="path49" />
    <path
       style="fill:#7cc0e2;stroke:none;stroke-width:0.264583"
       d="m 4.3104028,31.644786 c 0.32412,1.36366 1.2319,2.41115 2.16191,3.43932 2.30479,2.54899 5.9272002,5.50889 9.4797602,5.82109 -0.46593,-1.57374 -2.15186,-2.08465 -3.43958,-2.93131 -1.91532,-1.25916 -3.7073502,-2.77998 -5.2466902,-4.47702 -0.90937,-1.00224 -1.50575,-1.97353 -2.9554,-1.85208 z"
       id="path416" />
  </g>
</svg>
