<?xml version="1.0" encoding="UTF-8" standalone="no"?>
<!-- Created with Inkscape (http://www.inkscape.org/) -->

<svg
   width="58mm"
   height="26mm"
   viewBox="0 0 58 26"
   version="1.1"
   id="svg1"
   inkscape:version="1.2.2 (b0a8486541, 2022-12-01)"
   sodipodi:docname="letras_blancas.svg"
   xmlns:inkscape="http://www.inkscape.org/namespaces/inkscape"
   xmlns:sodipodi="http://sodipodi.sourceforge.net/DTD/sodipodi-0.dtd"
   xmlns="http://www.w3.org/2000/svg"
   xmlns:svg="http://www.w3.org/2000/svg">
  <sodipodi:namedview
     id="namedview1"
     pagecolor="#ffffff"
     bordercolor="#000000"
     borderopacity="0.25"
     inkscape:showpageshadow="2"
     inkscape:pageopacity="0.0"
     inkscape:pagecheckerboard="0"
     inkscape:deskcolor="#d1d1d1"
     inkscape:document-units="mm"
     inkscape:zoom="2.0686842"
     inkscape:cx="292.69813"
     inkscape:cy="175.47386"
     inkscape:window-width="1919"
     inkscape:window-height="1013"
     inkscape:window-x="1"
     inkscape:window-y="0"
     inkscape:window-maximized="1"
     inkscape:current-layer="layer1"
     showgrid="false" />
  <defs
     id="defs1">
    <rect
       x="128.91595"
       y="149.96346"
       width="206.52863"
       height="69.719856"
       id="rect2148" />
    <rect
       x="128.91595"
       y="149.96346"
       width="206.52863"
       height="69.719856"
       id="rect2149" />
    <rect
       x="666.94275"
       y="86.820953"
       width="78.928139"
       height="44.725945"
       id="rect2150" />
    <rect
       x="128.91595"
       y="149.96346"
       width="164.82722"
       height="60.832672"
       id="rect2148-2" />
    <rect
       x="128.91595"
       y="149.96346"
       width="181.23434"
       height="56.047264"
       id="rect2149-7" />
    <rect
       x="666.94275"
       y="86.820953"
       width="78.928139"
       height="44.725945"
       id="rect2150-9" />
  </defs>
  <g
     inkscape:label="Capa 1"
     inkscape:groupmode="layer"
     id="layer1">
    <path
       style="font-weight:bold;font-size:53.3333px;font-family:Sans;-inkscape-font-specification:'Sans, Bold';text-align:center;white-space:pre;fill:#034e79;stroke-width:0.264583"
       d="M 9.8704612,2.8826712 H 6.6665238 V 11.157785 H 4.0206931 V 2.8826712 H 0.81675565 V 0.89829618 H 9.8704612 Z M 17.008695,11.157785 H 11.000452 V 9.3387743 h 1.681207 V 2.7173066 H 11.000452 V 0.89829618 h 6.008243 V 2.7173066 H 15.32749 v 6.6214677 h 1.681205 z m 12.912211,0 H 27.288855 V 4.2882674 L 25.387163,8.7462187 H 23.561262 L 21.659572,4.2882674 V 11.157785 H 19.165324 V 0.89829618 h 3.073024 L 24.54656,6.0452648 26.847882,0.89829618 h 3.073024 z m 10.039001,0 H 32.539178 V 0.89829618 h 7.420729 V 2.8826712 H 35.171229 V 4.653448 h 4.444169 v 1.984375 h -4.444169 v 2.5355867 h 4.788678 z"
       id="text2148"
       aria-label="TIME" />
    <path
       style="font-weight:bold;font-size:48px;font-family:Sans;-inkscape-font-specification:'Sans, Bold';text-align:center;white-space:pre;fill:#034e79;stroke-width:0.264583"
       d="m 18.736065,24.826293 h -6.660058 v -9.233546 h 2.38125 v 7.447608 h 4.278808 z m 8.111132,0 h -6.678662 v -9.233546 h 6.678662 v 1.785938 h -4.309814 v 1.593701 h 3.999757 v 1.785938 h -3.999757 v 2.282031 h 4.309814 z m 10.529591,0 h -2.461866 l -0.63872,-1.866554 h -3.423046 l -0.638723,1.866554 H 27.81458 l 3.410646,-9.233546 h 2.740916 z m -3.677295,-3.559474 -1.134814,-3.311425 -1.134816,3.311425 z m 10.182322,-2.846338 q 0,-0.347265 -0.142626,-0.595312 -0.142626,-0.248047 -0.489892,-0.390673 -0.241845,-0.09922 -0.564306,-0.117824 -0.322461,-0.02479 -0.750342,-0.02479 h -0.861962 v 2.486671 h 0.731737 q 0.570507,0 0.954981,-0.05581 0.384472,-0.05581 0.644922,-0.254246 0.248047,-0.192238 0.359667,-0.421679 0.117821,-0.235646 0.117821,-0.626319 z m 3.714504,6.405812 h -2.90835 l -2.517677,-3.385841 h -1.097605 v 3.385841 h -2.368849 v -9.233546 h 3.993554 q 0.818555,0 1.407666,0.09302 0.589113,0.09302 1.10381,0.403077 0.520898,0.310057 0.824756,0.806151 0.310057,0.489894 0.310057,1.234035 0,1.023191 -0.477491,1.668113 -0.471289,0.644922 -1.351854,1.072804 z m 9.438183,0 h -2.294433 l -3.91914,-6.337599 v 6.337599 h -2.182813 v -9.233546 h 2.846337 l 3.367236,5.2896 v -5.2896 h 2.182813 z"
       id="text2149"
       aria-label="LEARN" />
    <path
       d="m 4.6628572,19.394064 v 1.922364 H 9.627928 v 1.5875 H 4.6628572 v 1.922362 h -1.190625 v -5.432226 z m 1.8892896,-6.941177 q 1.4717447,0 2.3399088,0.843359 0.8640313,0.843359 0.8640313,2.331641 0,1.484145 -0.8640313,2.327505 -0.8681641,0.843359 -2.3399088,0.843359 -1.4841464,0 -2.3440422,-0.843359 -0.8640299,-0.84336 -0.8640299,-2.327505 0,-1.480013 0.8640299,-2.327508 0.8598958,-0.847492 2.3440422,-0.847492 z M 8.1107093,14.55715 Q 7.8295895,14.325639 7.4492509,14.214019 7.064777,14.102397 6.548014,14.102397 q -0.5539714,0 -0.9425781,0.128159 -0.3886073,0.128156 -0.628386,0.334862 -0.2480468,0.210841 -0.3596679,0.487825 -0.1116211,0.272852 -0.1116211,0.570508 0,0.301792 0.1074869,0.570508 0.107487,0.264583 0.3555339,0.487825 0.2315104,0.206706 0.640787,0.338998 0.4051432,0.128159 0.9425781,0.128159 0.5498385,0 0.9384453,-0.124024 0.3844713,-0.128159 0.6283854,-0.334864 0.2439114,-0.206706 0.3596666,-0.48369 0.1157552,-0.276987 0.1157552,-0.582912 0,-0.305924 -0.1157552,-0.582909 -0.119888,-0.276987 -0.3679348,-0.483692 z"
       id="text2150"
       style="font-weight:bold;font-size:32px;font-family:Sans;-inkscape-font-specification:'Sans, Bold';text-align:center;white-space:pre;fill:#7cc0e2;stroke-width:0.264583"
       aria-label="TO" />
    <path
       style="fill:#ffffff;stroke-width:1.13641"
       d="M 15.46877,26.103549 V 10.15138 H 9.6679812 3.8671925 V 6.7675869 3.3837934 H 20.302761 36.738329 V 6.7675869 10.15138 H 30.93754 25.136751 v 15.952169 15.952169 h -4.83399 -4.833991 z"
       id="path257"
       transform="scale(0.26458333)" />
    <path
       style="fill:#ffffff;stroke-width:0.568203"
       d="m 41.572319,38.671925 v -3.142094 h 3.383794 3.383793 V 22.719756 9.9096808 H 44.956113 41.572319 V 6.7675869 3.625493 H 52.690498 63.808676 V 6.7675869 9.9096808 H 60.666582 57.524488 V 22.719756 35.529831 h 3.142094 3.142094 v 3.142094 3.142094 H 52.690498 41.572319 Z"
       id="path882"
       transform="scale(0.26458333)" />
    <path
       style="fill:#ffffff;stroke-width:0.568203"
       d="M 72.509859,22.719756 V 3.625493 h 5.685984 5.685983 l 4.302372,9.667981 c 2.366305,5.31739 4.430117,9.667134 4.586247,9.666099 0.156131,-10e-4 2.222598,-4.351627 4.59215,-9.667981 l 4.308275,-9.666099 h 5.48056 5.48055 v 19.094263 19.094263 h -4.59229 -4.59229 V 28.907264 c 0,-8.000537 -0.1716,-12.732189 -0.45142,-12.447526 -0.24828,0.252576 -1.94338,3.939702 -3.766885,8.193614 l -3.315464,7.734385 -3.365918,0.139642 -3.365917,0.139642 -3.333223,-7.874027 C 84.0153,20.462279 82.330646,16.712314 82.104896,16.459738 81.878672,16.206631 81.694441,21.793631 81.694441,28.907264 V 41.814019 H 77.10215 72.509859 Z"
       id="path884"
       transform="scale(0.26458333)" />
    <path
       style="fill:#ffffff;stroke-width:0.568203"
       d="M 123.26676,22.719756 V 3.625493 h 13.77687 13.77688 v 3.6254929 3.6254931 h -8.94289 -8.94288 v 3.383793 3.383794 h 8.21779 8.21778 v 3.625493 3.625493 h -8.21778 -8.21779 v 5.07569 5.07569 h 8.94288 8.94289 v 3.383793 3.383794 h -13.77688 -13.77687 z"
       id="path886"
       transform="scale(0.26458333)" />
    <path
       style="fill:#ffffff;stroke-width:0.568203"
       d="M 45.922911,76.377052 V 59.216385 h 4.350591 4.350592 v 14.018573 14.018573 h 7.976084 7.976085 v 3.142093 3.142094 H 58.249587 45.922911 Z"
       id="path888"
       transform="scale(0.26458333)" />
    <path
       style="fill:#ffffff;stroke-width:0.568203"
       d="M 76.377052,76.377052 V 59.216385 H 88.703728 101.0304 v 3.142094 3.142094 h -7.976081 -7.976084 v 3.142094 3.142094 h 7.492685 7.49269 v 3.142094 3.142093 h -7.49269 -7.492685 v 4.592291 4.592292 h 7.976084 7.976081 v 3.142093 3.142094 H 88.703728 76.377052 Z"
       id="path890"
       transform="scale(0.26458333)" />
    <path
       style="fill:#ffffff;stroke-width:0.568203"
       d="m 111.85591,76.367031 6.33516,-17.170688 5.0401,0.130871 5.0401,0.130871 6.18232,16.677267 c 3.40027,9.172497 6.18979,16.840415 6.19892,17.039817 0.009,0.199402 -1.90715,0.362549 -4.25842,0.362549 h -4.27504 l -1.15201,-3.383793 -1.15201,-3.383793 h -6.80448 -6.80448 l -1.08982,3.383793 -1.08982,3.383793 h -4.25285 -4.25284 z m 15.73602,3.756363 c -0.0887,-1.264115 -4.24131,-11.940264 -4.60404,-11.836605 -0.24543,0.07014 -1.35467,2.84364 -2.46499,6.163338 l -2.01877,6.035817 h 4.55661 c 2.50614,0 4.54517,-0.163147 4.53119,-0.36255 z"
       id="path892"
       transform="scale(0.26458333)" />
    <path
       style="fill:#ffffff;stroke-width:0.568203"
       d="M 146.46992,76.336189 V 59.13466 l 10.51393,0.161712 c 9.91193,0.152453 10.64722,0.227341 12.84197,1.307924 3.35658,1.652611 4.92433,4.203715 4.91821,8.003069 -0.006,3.688156 -1.24281,6.207996 -4.14673,8.448057 -1.173,0.904842 -2.10968,1.89511 -2.08151,2.200597 0.0282,0.305486 2.48051,3.643841 5.44965,7.418565 l 5.39844,6.863134 -5.20796,-0.01779 -5.20795,-0.01779 -4.59229,-6.248613 -4.59229,-6.248613 -2.29615,-0.01779 -2.29614,-0.01779 v 6.284188 6.284187 h -4.35059 -4.35059 z m 17.45539,-2.484352 c 1.92066,-1.134563 2.65912,-3.808731 1.69136,-6.124909 -0.83444,-1.997077 -2.77023,-2.702905 -7.42433,-2.707058 l -3.02124,-0.0027 v 5.146622 5.146622 l 3.6673,-0.310001 c 2.09327,-0.176946 4.27661,-0.669925 5.08691,-1.14858 z"
       id="path894"
       transform="scale(0.26458333)" />
    <path
       style="fill:#ffffff;stroke-width:0.568203"
       d="M 184.17504,76.377052 V 59.216385 l 5.19654,0.0198 5.19654,0.0198 6.28419,9.978736 6.28419,9.978735 0.13065,-9.998535 0.13066,-9.998535 h 3.85739 3.85738 v 17.160667 17.160666 h -4.0354 -4.03541 l -7.17309,-11.628871 c -3.94521,-6.395879 -7.34998,-11.738192 -7.56618,-11.871806 -0.21619,-0.133613 -0.39307,5.099379 -0.39307,11.628872 v 11.871805 h -3.8672 -3.86719 z"
       id="path896"
       transform="scale(0.26458333)" />
  </g>
</svg>
