<?xml version="1.0" encoding="UTF-8" standalone="no"?>
<!-- Created with Inkscape (http://www.inkscape.org/) -->

<svg
   width="58mm"
   height="26mm"
   viewBox="0 0 58 26"
   version="1.1"
   id="svg1"
   inkscape:version="1.3 (0e150ed6c4, 2023-07-21)"
   sodipodi:docname="letras.svg"
   xmlns:inkscape="http://www.inkscape.org/namespaces/inkscape"
   xmlns:sodipodi="http://sodipodi.sourceforge.net/DTD/sodipodi-0.dtd"
   xmlns="http://www.w3.org/2000/svg"
   xmlns:svg="http://www.w3.org/2000/svg">
  <sodipodi:namedview
     id="namedview1"
     pagecolor="#ffffff"
     bordercolor="#000000"
     borderopacity="0.25"
     inkscape:showpageshadow="2"
     inkscape:pageopacity="0.0"
     inkscape:pagecheckerboard="0"
     inkscape:deskcolor="#d1d1d1"
     inkscape:document-units="mm"
     inkscape:zoom="1.0343421"
     inkscape:cx="351.43113"
     inkscape:cy="253.78451"
     inkscape:window-width="1920"
     inkscape:window-height="1017"
     inkscape:window-x="1912"
     inkscape:window-y="-8"
     inkscape:window-maximized="1"
     inkscape:current-layer="layer1" />
  <defs
     id="defs1">
    <rect
       x="128.91595"
       y="149.96346"
       width="206.52863"
       height="69.719856"
       id="rect2148" />
    <rect
       x="128.91595"
       y="149.96346"
       width="206.52863"
       height="69.719856"
       id="rect2149" />
    <rect
       x="666.94275"
       y="86.820953"
       width="78.928139"
       height="44.725945"
       id="rect2150" />
    <rect
       x="128.91595"
       y="149.96346"
       width="164.82722"
       height="60.832672"
       id="rect2148-2" />
    <rect
       x="128.91595"
       y="149.96346"
       width="181.23434"
       height="56.047264"
       id="rect2149-7" />
    <rect
       x="666.94275"
       y="86.820953"
       width="78.928139"
       height="44.725945"
       id="rect2150-9" />
  </defs>
  <g
     inkscape:label="Capa 1"
     inkscape:groupmode="layer"
     id="layer1">
    <path
       style="font-weight:bold;font-size:53.3333px;font-family:Sans;-inkscape-font-specification:'Sans, Bold';text-align:center;white-space:pre;fill:#034e79;stroke-width:0.264583"
       d="M 9.8704612,2.8826712 H 6.6665238 V 11.157785 H 4.0206931 V 2.8826712 H 0.81675565 V 0.89829618 H 9.8704612 Z M 17.008695,11.157785 H 11.000452 V 9.3387743 h 1.681207 V 2.7173066 H 11.000452 V 0.89829618 h 6.008243 V 2.7173066 H 15.32749 v 6.6214677 h 1.681205 z m 12.912211,0 H 27.288855 V 4.2882674 L 25.387163,8.7462187 H 23.561262 L 21.659572,4.2882674 V 11.157785 H 19.165324 V 0.89829618 h 3.073024 L 24.54656,6.0452648 26.847882,0.89829618 h 3.073024 z m 10.039001,0 H 32.539178 V 0.89829618 h 7.420729 V 2.8826712 H 35.171229 V 4.653448 h 4.444169 v 1.984375 h -4.444169 v 2.5355867 h 4.788678 z"
       id="text2148"
       aria-label="TIME" />
    <path
       style="font-weight:bold;font-size:48px;font-family:Sans;-inkscape-font-specification:'Sans, Bold';text-align:center;white-space:pre;fill:#034e79;stroke-width:0.264583"
       d="m 18.736065,24.826293 h -6.660058 v -9.233546 h 2.38125 v 7.447608 h 4.278808 z m 8.111132,0 h -6.678662 v -9.233546 h 6.678662 v 1.785938 h -4.309814 v 1.593701 h 3.999757 v 1.785938 h -3.999757 v 2.282031 h 4.309814 z m 10.529591,0 h -2.461866 l -0.63872,-1.866554 h -3.423046 l -0.638723,1.866554 H 27.81458 l 3.410646,-9.233546 h 2.740916 z m -3.677295,-3.559474 -1.134814,-3.311425 -1.134816,3.311425 z m 10.182322,-2.846338 q 0,-0.347265 -0.142626,-0.595312 -0.142626,-0.248047 -0.489892,-0.390673 -0.241845,-0.09922 -0.564306,-0.117824 -0.322461,-0.02479 -0.750342,-0.02479 h -0.861962 v 2.486671 h 0.731737 q 0.570507,0 0.954981,-0.05581 0.384472,-0.05581 0.644922,-0.254246 0.248047,-0.192238 0.359667,-0.421679 0.117821,-0.235646 0.117821,-0.626319 z m 3.714504,6.405812 h -2.90835 l -2.517677,-3.385841 h -1.097605 v 3.385841 h -2.368849 v -9.233546 h 3.993554 q 0.818555,0 1.407666,0.09302 0.589113,0.09302 1.10381,0.403077 0.520898,0.310057 0.824756,0.806151 0.310057,0.489894 0.310057,1.234035 0,1.023191 -0.477491,1.668113 -0.471289,0.644922 -1.351854,1.072804 z m 9.438183,0 h -2.294433 l -3.91914,-6.337599 v 6.337599 h -2.182813 v -9.233546 h 2.846337 l 3.367236,5.2896 v -5.2896 h 2.182813 z"
       id="text2149"
       aria-label="LEARN" />
    <path
       d="m 4.6628572,19.394064 v 1.922364 H 9.627928 v 1.5875 H 4.6628572 v 1.922362 h -1.190625 v -5.432226 z m 1.8892896,-6.941177 q 1.4717447,0 2.3399088,0.843359 0.8640313,0.843359 0.8640313,2.331641 0,1.484145 -0.8640313,2.327505 -0.8681641,0.843359 -2.3399088,0.843359 -1.4841464,0 -2.3440422,-0.843359 -0.8640299,-0.84336 -0.8640299,-2.327505 0,-1.480013 0.8640299,-2.327508 0.8598958,-0.847492 2.3440422,-0.847492 z M 8.1107093,14.55715 Q 7.8295895,14.325639 7.4492509,14.214019 7.064777,14.102397 6.548014,14.102397 q -0.5539714,0 -0.9425781,0.128159 -0.3886073,0.128156 -0.628386,0.334862 -0.2480468,0.210841 -0.3596679,0.487825 -0.1116211,0.272852 -0.1116211,0.570508 0,0.301792 0.1074869,0.570508 0.107487,0.264583 0.3555339,0.487825 0.2315104,0.206706 0.640787,0.338998 0.4051432,0.128159 0.9425781,0.128159 0.5498385,0 0.9384453,-0.124024 0.3844713,-0.128159 0.6283854,-0.334864 0.2439114,-0.206706 0.3596666,-0.48369 0.1157552,-0.276987 0.1157552,-0.582912 0,-0.305924 -0.1157552,-0.582909 -0.119888,-0.276987 -0.3679348,-0.483692 z"
       id="text2150"
       style="font-weight:bold;font-size:32px;font-family:Sans;-inkscape-font-specification:'Sans, Bold';text-align:center;white-space:pre;fill:#7cc0e2;stroke-width:0.264583"
       aria-label="TO" />
  </g>
</svg>
